<svg width="21" height="21" viewBox="0 0 21 21" fill="none" xmlns="http://www.w3.org/2000/svg">
<path opacity="0.4" d="M3.13183 12.3278L1.50204 13.9576C0.037978 10.4975 0.709316 6.34912 3.52978 3.52971C6.95613 0.103357 12.3448 -0.153144 16.072 2.74754" stroke="#41DD83" stroke-width="1.5" stroke-linecap="round" stroke-linejoin="round"/>
<path opacity="0.4" d="M4.427 17.7526C8.1563 20.6522 13.5439 20.3978 16.9692 16.9704C19.7886 14.151 20.461 10.0026 18.9969 6.54248L17.3671 8.17227" stroke="#41DD83" stroke-width="1.5" stroke-linecap="round" stroke-linejoin="round"/>
<path d="M8.03174 12.4661L12.4651 8.03271" stroke="#2AB163" stroke-width="1.5" stroke-linecap="round" stroke-linejoin="round"/>
<path d="M12.6743 12.3036C12.7777 12.4071 12.7777 12.5739 12.6743 12.6762C12.5708 12.7797 12.4041 12.7797 12.3017 12.6762C12.1982 12.5728 12.1982 12.406 12.3017 12.3036C12.403 12.2002 12.5708 12.2002 12.6743 12.3036" stroke="#2AB163" stroke-width="1.5" stroke-linecap="round" stroke-linejoin="round"/>
<path d="M8.1985 7.82175C8.30195 7.9252 8.30195 8.09303 8.1985 8.19542C8.09506 8.29887 7.92722 8.29887 7.82483 8.19542C7.72139 8.09198 7.72139 7.92414 7.82483 7.82175C7.92828 7.71936 8.09506 7.71936 8.1985 7.82175" stroke="#2AB163" stroke-width="1.5" stroke-linecap="round" stroke-linejoin="round"/>
</svg>
