<svg width="27" height="28" viewBox="0 0 27 28" fill="none" xmlns="http://www.w3.org/2000/svg">
<path fill-rule="evenodd" clip-rule="evenodd" d="M5.4696 0.321777C2.62654 0.321777 0.321777 2.62654 0.321777 5.4696V20.2169C0.321777 23.06 2.62654 25.3647 5.4696 25.3647H21.8221L24.8492 27.4949C25.2419 27.7712 25.7829 27.4904 25.7829 27.0103V25.3647H25.8076V5.4696C25.8076 2.62654 23.5028 0.321777 20.6597 0.321777H5.4696Z" fill="white"/>
<path d="M21.8221 25.3647L22.0073 25.1016L21.924 25.043H21.8221V25.3647ZM24.8492 27.4949L24.6641 27.7581H24.6641L24.8492 27.4949ZM25.7829 25.3647V25.043H25.4611V25.3647H25.7829ZM25.8076 25.3647V25.6865H26.1293V25.3647H25.8076ZM0.643516 5.4696C0.643516 2.80423 2.80423 0.643516 5.4696 0.643516V3.82066e-05C2.44885 3.82066e-05 3.82066e-05 2.44885 3.82066e-05 5.4696H0.643516ZM0.643516 20.2169V5.4696H3.82066e-05V20.2169H0.643516ZM5.4696 25.043C2.80423 25.043 0.643516 22.8823 0.643516 20.2169H3.82066e-05C3.82066e-05 23.2377 2.44885 25.6865 5.4696 25.6865V25.043ZM21.8221 25.043H5.4696V25.6865H21.8221V25.043ZM21.6369 25.6279L24.6641 27.7581L25.0344 27.2318L22.0073 25.1016L21.6369 25.6279ZM24.6641 27.7581C25.2699 28.1844 26.1046 27.7511 26.1046 27.0103H25.4611C25.4611 27.2297 25.2138 27.3581 25.0344 27.2318L24.6641 27.7581ZM26.1046 27.0103V25.3647H25.4611V27.0103H26.1046ZM25.8076 25.043H25.7829V25.6865H25.8076V25.043ZM25.4858 5.4696V25.3647H26.1293V5.4696H25.4858ZM20.6597 0.643516C23.3251 0.643516 25.4858 2.80423 25.4858 5.4696H26.1293C26.1293 2.44885 23.6805 3.82066e-05 20.6597 3.82066e-05V0.643516ZM5.4696 0.643516H20.6597V3.82066e-05H5.4696V0.643516Z" fill="#A6AEB8" fill-opacity="0.2"/>
<path d="M4.20239 17.4006C4.20239 17.4006 6.70546 20.5864 12.8494 20.5864C18.3106 20.5864 21.7239 17.4006 21.7239 17.4006" stroke="#475567" stroke-width="2.57391" stroke-linecap="round"/>
</svg>
