<svg width="19" height="19" viewBox="0 0 19 19" fill="none" xmlns="http://www.w3.org/2000/svg">
<path fill-rule="evenodd" clip-rule="evenodd" d="M8.47254 5.65359C8.61986 5.35616 8.92308 5.16797 9.255 5.16797C9.58692 5.16797 9.89014 5.35616 10.0375 5.65359L10.6725 6.9473C10.8003 7.20614 11.0481 7.38486 11.334 7.42452L12.7619 7.63242C13.0902 7.68042 13.3629 7.91055 13.4653 8.22615C13.5678 8.54175 13.4823 8.88815 13.2448 9.11985L12.2119 10.1272C12.0069 10.328 11.9133 10.6164 11.9615 10.8993L12.2053 12.3168C12.261 12.6439 12.1265 12.9743 11.8582 13.1695C11.5898 13.3647 11.234 13.391 10.9399 13.2372L9.6623 12.5653C9.40845 12.4321 9.10533 12.4321 8.85149 12.5653L7.57385 13.2372C7.27978 13.391 6.92398 13.3647 6.65563 13.1695C6.38728 12.9743 6.25277 12.6439 6.30849 12.3168L6.5523 10.8993C6.60045 10.6164 6.50688 10.328 6.30188 10.1272L5.2671 9.11985C5.02958 8.88815 4.9441 8.54175 5.04656 8.22615C5.14902 7.91055 5.42167 7.68042 5.75 7.63242L7.17789 7.42452C7.46384 7.38486 7.71157 7.20614 7.83939 6.9473L8.47254 5.65359Z" fill="#07BCFF"/>
<rect opacity="0.5" x="0.75" y="0.75" width="17.01" height="17.01" rx="5" stroke="#07BCFF" stroke-width="1.5" stroke-linecap="round" stroke-linejoin="round"/>
</svg>
